<?xml version="1.0" encoding="utf-8"?>
<!-- Created by UniConvertor 2.0rc5 (https://sk1project.net/) -->
<svg xmlns="http://www.w3.org/2000/svg" height="841.88976378pt" viewBox="0 0 595.275590551 841.88976378" width="595.275590551pt" version="1.1" xmlns:xlink="http://www.w3.org/1999/xlink" id="edcc117a-4777-11ef-b45f-089204111e74">

<g>
</g>
<g>
	<g>
		<path style="fill-rule:evenodd;fill:#e31c2a;" d="M 67.8414,44.9268 L 39.2683,44.9268 39.2683,73.5 67.8414,73.5 67.8414,44.9268 Z M 67.7651,83.0244 L 67.7651,100.3299 29.7304,100.3299 29.7304,109.8543 72.5902,109.8543 72.5902,109.8281 77.2895,109.8281 77.2895,83.0602 104.3619,83.0602 104.3619,78.3609 104.3881,78.3609 104.3881,35.5011 94.8637,35.5011 94.8637,73.5358 77.3658,73.5358 77.3658,35.4024 29.7439,35.4024 29.7439,83.0244 67.7651,83.0244 Z" />
		<path style="fill-rule:evenodd;fill:#e31c2a;" d="M 67.8414,789.6627 L 39.2683,789.6627 39.2683,761.0895 67.8414,761.0895 67.8414,789.6627 Z M 67.7651,751.5651 L 67.7651,734.2596 29.7304,734.2596 29.7304,724.7352 72.5902,724.7352 72.5902,724.7614 77.2895,724.7614 77.2895,751.5293 104.3619,751.5293 104.3619,756.2286 104.3881,756.2286 104.3881,799.0884 94.8637,799.0884 94.8637,761.0538 77.3658,761.0538 77.3658,799.1871 29.7439,799.1871 29.7439,751.5651 67.7651,751.5651 Z" />
		<path style="fill:none;" d="M 39.2533,100.8595 L 39.2533,415.1458 29.7289,415.1458 29.7289,100.8595 39.2533,100.8595 Z" />
		<path style="fill:none;" d="M 39.2533,729.4323 L 39.2533,415.1458 29.7289,415.1458 29.7289,729.4323 39.2533,729.4323 Z" />
		<path style="fill-rule:evenodd;fill:#e31c2a;" d="M 527.4342,44.9268 L 556.0073,44.9268 556.0073,73.5 527.4342,73.5 527.4342,44.9268 Z M 527.5105,83.0244 L 527.5105,100.3299 565.5451,100.3299 565.5451,109.8543 522.6854,109.8543 522.6854,109.8281 517.9861,109.8281 517.9861,83.0602 490.9137,83.0602 490.9137,78.3609 490.8875,78.3609 490.8875,35.5011 500.4119,35.5011 500.4119,73.5358 517.9098,73.5358 517.9098,35.4024 565.5317,35.4024 565.5317,83.0244 527.5105,83.0244 Z" />
		<path style="fill-rule:evenodd;fill:#e31c2a;" d="M 527.4342,789.6627 L 556.0073,789.6627 556.0073,761.0895 527.4342,761.0895 527.4342,789.6627 Z M 527.5105,751.5651 L 527.5105,734.2596 565.5451,734.2596 565.5451,724.7352 522.6854,724.7352 522.6854,724.7614 517.9861,724.7614 517.9861,751.5293 490.9137,751.5293 490.9137,756.2286 490.8875,756.2286 490.8875,799.0884 500.4119,799.0884 500.4119,761.0538 517.9098,761.0538 517.9098,799.1871 565.5317,799.1871 565.5317,751.5651 527.5105,751.5651 Z" />
		<path style="fill:none;" d="M 556.0223,100.8595 L 556.0223,415.1458 565.5467,415.1458 565.5467,100.8595 556.0223,100.8595 Z" />
		<path style="fill:none;" d="M 556.0223,729.4323 L 556.0223,415.1458 565.5467,415.1458 565.5467,729.4323 556.0223,729.4323 Z" />
		<path style="fill:none;" d="M 494.5124,35.5003 L 297.4912,35.5003 297.4912,45.0247 494.5124,45.0247 494.5124,35.5003 Z" />
		<path style="fill:none;" d="M 100.4698,35.5003 L 297.4912,35.5003 297.4912,45.0247 100.4698,45.0247 100.4698,35.5003 Z" />
		<path style="fill:none;" d="M 494.5124,789.5529 L 297.4912,789.5529 297.4912,799.0773 494.5124,799.0773 494.5124,789.5529 Z" />
		<path style="fill:none;" d="M 100.4698,789.5529 L 297.4912,789.5529 297.4912,799.0773 100.4698,799.0773 100.4698,789.5529 Z" />
	</g>
</g>
<g>
</g>
<g>
</g>
<rect y="0.0" x="625.275590551" style="fill:none;stroke:black;" height="841.88976378" width="595.275590551" />
<g>
</g>
<g>
</g>
<g>
</g>
<g>
</g>
<rect y="0.0" x="1250.5511811" style="fill:none;stroke:black;" height="841.88976378" width="595.275590551" />
<g>
</g>
<g>
	<g>
		<path style="fill-rule:evenodd;fill:#e31c2a;" d="M 1318.3926,44.9268 L 1289.8194,44.9268 1289.8194,73.5 1318.3926,73.5 1318.3926,44.9268 Z M 1318.3163,83.0244 L 1318.3163,100.3299 1280.2816,100.3299 1280.2816,109.8543 1323.1414,109.8543 1323.1414,109.8281 1327.8407,109.8281 1327.8407,83.0602 1354.9131,83.0602 1354.9131,78.3609 1354.9392,78.3609 1354.9392,35.5011 1345.4149,35.5011 1345.4149,73.5358 1327.917,73.5358 1327.917,35.4024 1280.2951,35.4024 1280.2951,83.0244 1318.3163,83.0244 Z" />
		<path style="fill-rule:evenodd;fill:#e31c2a;" d="M 1318.3926,789.6627 L 1289.8194,789.6627 1289.8194,761.0895 1318.3926,761.0895 1318.3926,789.6627 Z M 1318.3163,751.5651 L 1318.3163,734.2596 1280.2816,734.2596 1280.2816,724.7352 1323.1414,724.7352 1323.1414,724.7614 1327.8407,724.7614 1327.8407,751.5293 1354.9131,751.5293 1354.9131,756.2286 1354.9392,756.2286 1354.9392,799.0884 1345.4149,799.0884 1345.4149,761.0538 1327.917,761.0538 1327.917,799.1871 1280.2951,799.1871 1280.2951,751.5651 1318.3163,751.5651 Z" />
		<path style="fill:none;" d="M 1289.8045,100.8595 L 1289.8045,415.1458 1280.2801,415.1458 1280.2801,100.8595 1289.8045,100.8595 Z" />
		<path style="fill:none;" d="M 1289.8045,729.4323 L 1289.8045,415.1458 1280.2801,415.1458 1280.2801,729.4323 1289.8045,729.4323 Z" />
		<path style="fill-rule:evenodd;fill:#e31c2a;" d="M 1777.9853,44.9268 L 1806.5585,44.9268 1806.5585,73.5 1777.9853,73.5 1777.9853,44.9268 Z M 1778.0616,83.0244 L 1778.0616,100.3299 1816.0963,100.3299 1816.0963,109.8543 1773.2366,109.8543 1773.2366,109.8281 1768.5373,109.8281 1768.5373,83.0602 1741.4649,83.0602 1741.4649,78.3609 1741.4387,78.3609 1741.4387,35.5011 1750.9631,35.5011 1750.9631,73.5358 1768.461,73.5358 1768.461,35.4024 1816.0829,35.4024 1816.0829,83.0244 1778.0616,83.0244 Z" />
		<path style="fill-rule:evenodd;fill:#e31c2a;" d="M 1777.9853,789.6627 L 1806.5585,789.6627 1806.5585,761.0895 1777.9853,761.0895 1777.9853,789.6627 Z M 1778.0616,751.5651 L 1778.0616,734.2596 1816.0963,734.2596 1816.0963,724.7352 1773.2366,724.7352 1773.2366,724.7614 1768.5373,724.7614 1768.5373,751.5293 1741.4649,751.5293 1741.4649,756.2286 1741.4387,756.2286 1741.4387,799.0884 1750.9631,799.0884 1750.9631,761.0538 1768.461,761.0538 1768.461,799.1871 1816.0829,799.1871 1816.0829,751.5651 1778.0616,751.5651 Z" />
		<path style="fill:none;" d="M 1806.5734,100.8595 L 1806.5734,415.1458 1816.0979,415.1458 1816.0979,100.8595 1806.5734,100.8595 Z" />
		<path style="fill:none;" d="M 1806.5734,729.4323 L 1806.5734,415.1458 1816.0979,415.1458 1816.0979,729.4323 1806.5734,729.4323 Z" />
		<path style="fill:none;" d="M 1745.0636,35.5003 L 1548.0424,35.5003 1548.0424,45.0247 1745.0636,45.0247 1745.0636,35.5003 Z" />
		<path style="fill:none;" d="M 1351.0209,35.5003 L 1548.0424,35.5003 1548.0424,45.0247 1351.0209,45.0247 1351.0209,35.5003 Z" />
		<path style="fill:none;" d="M 1745.0636,789.5529 L 1548.0424,789.5529 1548.0424,799.0773 1745.0636,799.0773 1745.0636,789.5529 Z" />
		<path style="fill:none;" d="M 1351.0209,789.5529 L 1548.0424,789.5529 1548.0424,799.0773 1351.0209,799.0773 1351.0209,789.5529 Z" />
	</g>
</g>
<g>
</g>
<g>
</g>
<rect y="0.0" x="1875.82677165" style="fill:none;stroke:black;" height="841.88976378" width="595.275590551" />
<g>
</g>
<g>
	<g>
		<path style="fill-rule:evenodd;fill:#e31c2a;" d="M 1943.6682,44.9268 L 1915.095,44.9268 1915.095,73.5 1943.6682,73.5 1943.6682,44.9268 Z M 1943.5919,83.0244 L 1943.5919,100.3299 1905.5572,100.3299 1905.5572,109.8543 1948.417,109.8543 1948.417,109.8281 1953.1163,109.8281 1953.1163,83.0602 1980.1886,83.0602 1980.1886,78.3609 1980.2148,78.3609 1980.2148,35.5011 1970.6905,35.5011 1970.6905,73.5358 1953.1926,73.5358 1953.1926,35.4024 1905.5706,35.4024 1905.5706,83.0244 1943.5919,83.0244 Z" />
		<path style="fill-rule:evenodd;fill:#e31c2a;" d="M 1943.6682,789.6627 L 1915.095,789.6627 1915.095,761.0895 1943.6682,761.0895 1943.6682,789.6627 Z M 1943.5919,751.5651 L 1943.5919,734.2596 1905.5572,734.2596 1905.5572,724.7352 1948.417,724.7352 1948.417,724.7614 1953.1163,724.7614 1953.1163,751.5293 1980.1886,751.5293 1980.1886,756.2286 1980.2148,756.2286 1980.2148,799.0884 1970.6905,799.0884 1970.6905,761.0538 1953.1926,761.0538 1953.1926,799.1871 1905.5706,799.1871 1905.5706,751.5651 1943.5919,751.5651 Z" />
		<path style="fill:none;" d="M 1915.0801,100.8595 L 1915.0801,415.1458 1905.5557,415.1458 1905.5557,100.8595 1915.0801,100.8595 Z" />
		<path style="fill:none;" d="M 1915.0801,729.4323 L 1915.0801,415.1458 1905.5557,415.1458 1905.5557,729.4323 1915.0801,729.4323 Z" />
		<path style="fill-rule:evenodd;fill:#e31c2a;" d="M 2403.2609,44.9268 L 2431.8341,44.9268 2431.8341,73.5 2403.2609,73.5 2403.2609,44.9268 Z M 2403.3372,83.0244 L 2403.3372,100.3299 2441.3719,100.3299 2441.3719,109.8543 2398.5122,109.8543 2398.5122,109.8281 2393.8128,109.8281 2393.8128,83.0602 2366.7405,83.0602 2366.7405,78.3609 2366.7143,78.3609 2366.7143,35.5011 2376.2387,35.5011 2376.2387,73.5358 2393.7366,73.5358 2393.7366,35.4024 2441.3585,35.4024 2441.3585,83.0244 2403.3372,83.0244 Z" />
		<path style="fill-rule:evenodd;fill:#e31c2a;" d="M 2403.2609,789.6627 L 2431.8341,789.6627 2431.8341,761.0895 2403.2609,761.0895 2403.2609,789.6627 Z M 2403.3372,751.5651 L 2403.3372,734.2596 2441.3719,734.2596 2441.3719,724.7352 2398.5122,724.7352 2398.5122,724.7614 2393.8128,724.7614 2393.8128,751.5293 2366.7405,751.5293 2366.7405,756.2286 2366.7143,756.2286 2366.7143,799.0884 2376.2387,799.0884 2376.2387,761.0538 2393.7366,761.0538 2393.7366,799.1871 2441.3585,799.1871 2441.3585,751.5651 2403.3372,751.5651 Z" />
		<path style="fill:none;" d="M 2431.849,100.8595 L 2431.849,415.1458 2441.3734,415.1458 2441.3734,100.8595 2431.849,100.8595 Z" />
		<path style="fill:none;" d="M 2431.849,729.4323 L 2431.849,415.1458 2441.3734,415.1458 2441.3734,729.4323 2431.849,729.4323 Z" />
		<path style="fill:none;" d="M 2370.3392,35.5003 L 2173.318,35.5003 2173.318,45.0247 2370.3392,45.0247 2370.3392,35.5003 Z" />
		<path style="fill:none;" d="M 1976.2965,35.5003 L 2173.318,35.5003 2173.318,45.0247 1976.2965,45.0247 1976.2965,35.5003 Z" />
		<path style="fill:none;" d="M 2370.3392,789.5529 L 2173.318,789.5529 2173.318,799.0773 2370.3392,799.0773 2370.3392,789.5529 Z" />
		<path style="fill:none;" d="M 1976.2965,789.5529 L 2173.318,789.5529 2173.318,799.0773 1976.2965,799.0773 1976.2965,789.5529 Z" />
	</g>
</g>
<g>
</g>
<g>
</g>
<rect y="0.0" x="2501.1023622" style="fill:none;stroke:black;" height="841.88976378" width="595.275590551" />
<g>
</g>
<g>
	<g>
		<path style="fill-rule:evenodd;fill:#e31c2a;" d="M 2568.9438,44.9268 L 2540.3706,44.9268 2540.3706,73.5 2568.9438,73.5 2568.9438,44.9268 Z M 2568.8675,83.0244 L 2568.8675,100.3299 2530.8328,100.3299 2530.8328,109.8543 2573.6925,109.8543 2573.6925,109.8281 2578.3919,109.8281 2578.3919,83.0602 2605.4642,83.0602 2605.4642,78.3609 2605.4904,78.3609 2605.4904,35.5011 2595.966,35.5011 2595.966,73.5358 2578.4682,73.5358 2578.4682,35.4024 2530.8462,35.4024 2530.8462,83.0244 2568.8675,83.0244 Z" />
		<path style="fill-rule:evenodd;fill:#e31c2a;" d="M 2568.9438,789.6627 L 2540.3706,789.6627 2540.3706,761.0895 2568.9438,761.0895 2568.9438,789.6627 Z M 2568.8675,751.5651 L 2568.8675,734.2596 2530.8328,734.2596 2530.8328,724.7352 2573.6925,724.7352 2573.6925,724.7614 2578.3919,724.7614 2578.3919,751.5293 2605.4642,751.5293 2605.4642,756.2286 2605.4904,756.2286 2605.4904,799.0884 2595.966,799.0884 2595.966,761.0538 2578.4682,761.0538 2578.4682,799.1871 2530.8462,799.1871 2530.8462,751.5651 2568.8675,751.5651 Z" />
		<path style="fill:none;" d="M 2540.3557,100.8595 L 2540.3557,415.1458 2530.8313,415.1458 2530.8313,100.8595 2540.3557,100.8595 Z" />
		<path style="fill:none;" d="M 2540.3557,729.4323 L 2540.3557,415.1458 2530.8313,415.1458 2530.8313,729.4323 2540.3557,729.4323 Z" />
		<path style="fill-rule:evenodd;fill:#e31c2a;" d="M 3028.5365,44.9268 L 3057.1097,44.9268 3057.1097,73.5 3028.5365,73.5 3028.5365,44.9268 Z M 3028.6128,83.0244 L 3028.6128,100.3299 3066.6475,100.3299 3066.6475,109.8543 3023.7878,109.8543 3023.7878,109.8281 3019.0884,109.8281 3019.0884,83.0602 2992.0161,83.0602 2992.0161,78.3609 2991.9899,78.3609 2991.9899,35.5011 3001.5143,35.5011 3001.5143,73.5358 3019.0121,73.5358 3019.0121,35.4024 3066.6341,35.4024 3066.6341,83.0244 3028.6128,83.0244 Z" />
		<path style="fill-rule:evenodd;fill:#e31c2a;" d="M 3028.5365,789.6627 L 3057.1097,789.6627 3057.1097,761.0895 3028.5365,761.0895 3028.5365,789.6627 Z M 3028.6128,751.5651 L 3028.6128,734.2596 3066.6475,734.2596 3066.6475,724.7352 3023.7878,724.7352 3023.7878,724.7614 3019.0884,724.7614 3019.0884,751.5293 2992.0161,751.5293 2992.0161,756.2286 2991.9899,756.2286 2991.9899,799.0884 3001.5143,799.0884 3001.5143,761.0538 3019.0121,761.0538 3019.0121,799.1871 3066.6341,799.1871 3066.6341,751.5651 3028.6128,751.5651 Z" />
		<path style="fill:none;" d="M 3057.1246,100.8595 L 3057.1246,415.1458 3066.649,415.1458 3066.649,100.8595 3057.1246,100.8595 Z" />
		<path style="fill:none;" d="M 3057.1246,729.4323 L 3057.1246,415.1458 3066.649,415.1458 3066.649,729.4323 3057.1246,729.4323 Z" />
		<path style="fill:none;" d="M 2995.6148,35.5003 L 2798.5936,35.5003 2798.5936,45.0247 2995.6148,45.0247 2995.6148,35.5003 Z" />
		<path style="fill:none;" d="M 2601.5721,35.5003 L 2798.5936,35.5003 2798.5936,45.0247 2601.5721,45.0247 2601.5721,35.5003 Z" />
		<path style="fill:none;" d="M 2995.6148,789.5529 L 2798.5936,789.5529 2798.5936,799.0773 2995.6148,799.0773 2995.6148,789.5529 Z" />
		<path style="fill:none;" d="M 2601.5721,789.5529 L 2798.5936,789.5529 2798.5936,799.0773 2601.5721,799.0773 2601.5721,789.5529 Z" />
	</g>
</g>
<g>
</g>
<g>
</g>
<rect y="0.0" x="3126.37795276" style="fill:none;stroke:black;" height="841.88976378" width="595.275590551" />
<g>
</g>
<g>
	<g>
		<path style="fill-rule:evenodd;fill:#e31c2a;" d="M 3194.2194,44.9268 L 3165.6462,44.9268 3165.6462,73.5 3194.2194,73.5 3194.2194,44.9268 Z M 3194.1431,83.0244 L 3194.1431,100.3299 3156.1084,100.3299 3156.1084,109.8543 3198.9681,109.8543 3198.9681,109.8281 3203.6675,109.8281 3203.6675,83.0602 3230.7398,83.0602 3230.7398,78.3609 3230.766,78.3609 3230.766,35.5011 3221.2416,35.5011 3221.2416,73.5358 3203.7438,73.5358 3203.7438,35.4024 3156.1218,35.4024 3156.1218,83.0244 3194.1431,83.0244 Z" />
		<path style="fill-rule:evenodd;fill:#e31c2a;" d="M 3194.2194,789.6627 L 3165.6462,789.6627 3165.6462,761.0895 3194.2194,761.0895 3194.2194,789.6627 Z M 3194.1431,751.5651 L 3194.1431,734.2596 3156.1084,734.2596 3156.1084,724.7352 3198.9681,724.7352 3198.9681,724.7614 3203.6675,724.7614 3203.6675,751.5293 3230.7398,751.5293 3230.7398,756.2286 3230.766,756.2286 3230.766,799.0884 3221.2416,799.0884 3221.2416,761.0538 3203.7438,761.0538 3203.7438,799.1871 3156.1218,799.1871 3156.1218,751.5651 3194.1431,751.5651 Z" />
		<path style="fill:none;" d="M 3165.6313,100.8595 L 3165.6313,415.1458 3156.1069,415.1458 3156.1069,100.8595 3165.6313,100.8595 Z" />
		<path style="fill:none;" d="M 3165.6313,729.4323 L 3165.6313,415.1458 3156.1069,415.1458 3156.1069,729.4323 3165.6313,729.4323 Z" />
		<path style="fill-rule:evenodd;fill:#e31c2a;" d="M 3653.8121,44.9268 L 3682.3853,44.9268 3682.3853,73.5 3653.8121,73.5 3653.8121,44.9268 Z M 3653.8884,83.0244 L 3653.8884,100.3299 3691.9231,100.3299 3691.9231,109.8543 3649.0634,109.8543 3649.0634,109.8281 3644.364,109.8281 3644.364,83.0602 3617.2917,83.0602 3617.2917,78.3609 3617.2655,78.3609 3617.2655,35.5011 3626.7899,35.5011 3626.7899,73.5358 3644.2877,73.5358 3644.2877,35.4024 3691.9097,35.4024 3691.9097,83.0244 3653.8884,83.0244 Z" />
		<path style="fill-rule:evenodd;fill:#e31c2a;" d="M 3653.8121,789.6627 L 3682.3853,789.6627 3682.3853,761.0895 3653.8121,761.0895 3653.8121,789.6627 Z M 3653.8884,751.5651 L 3653.8884,734.2596 3691.9231,734.2596 3691.9231,724.7352 3649.0634,724.7352 3649.0634,724.7614 3644.364,724.7614 3644.364,751.5293 3617.2917,751.5293 3617.2917,756.2286 3617.2655,756.2286 3617.2655,799.0884 3626.7899,799.0884 3626.7899,761.0538 3644.2877,761.0538 3644.2877,799.1871 3691.9097,799.1871 3691.9097,751.5651 3653.8884,751.5651 Z" />
		<path style="fill:none;" d="M 3682.4002,100.8595 L 3682.4002,415.1458 3691.9246,415.1458 3691.9246,100.8595 3682.4002,100.8595 Z" />
		<path style="fill:none;" d="M 3682.4002,729.4323 L 3682.4002,415.1458 3691.9246,415.1458 3691.9246,729.4323 3682.4002,729.4323 Z" />
		<path style="fill:none;" d="M 3620.8904,35.5003 L 3423.8692,35.5003 3423.8692,45.0247 3620.8904,45.0247 3620.8904,35.5003 Z" />
		<path style="fill:none;" d="M 3226.8477,35.5003 L 3423.8692,35.5003 3423.8692,45.0247 3226.8477,45.0247 3226.8477,35.5003 Z" />
		<path style="fill:none;" d="M 3620.8904,789.5529 L 3423.8692,789.5529 3423.8692,799.0773 3620.8904,799.0773 3620.8904,789.5529 Z" />
		<path style="fill:none;" d="M 3226.8477,789.5529 L 3423.8692,789.5529 3423.8692,799.0773 3226.8477,799.0773 3226.8477,789.5529 Z" />
	</g>
</g>
<g>
</g>
<g>
</g>
<rect y="0.0" x="3751.65354331" style="fill:none;stroke:black;" height="841.88976378" width="595.275590551" />
<g>
</g>
<g>
	<g>
		<path style="fill-rule:evenodd;fill:#e31c2a;" d="M 3819.495,44.9268 L 3790.9218,44.9268 3790.9218,73.5 3819.495,73.5 3819.495,44.9268 Z M 3819.4187,83.0244 L 3819.4187,100.3299 3781.384,100.3299 3781.384,109.8543 3824.2437,109.8543 3824.2437,109.8281 3828.9431,109.8281 3828.9431,83.0602 3856.0154,83.0602 3856.0154,78.3609 3856.0416,78.3609 3856.0416,35.5011 3846.5172,35.5011 3846.5172,73.5358 3829.0194,73.5358 3829.0194,35.4024 3781.3974,35.4024 3781.3974,83.0244 3819.4187,83.0244 Z" />
		<path style="fill-rule:evenodd;fill:#e31c2a;" d="M 3819.495,789.6627 L 3790.9218,789.6627 3790.9218,761.0895 3819.495,761.0895 3819.495,789.6627 Z M 3819.4187,751.5651 L 3819.4187,734.2596 3781.384,734.2596 3781.384,724.7352 3824.2437,724.7352 3824.2437,724.7614 3828.9431,724.7614 3828.9431,751.5293 3856.0154,751.5293 3856.0154,756.2286 3856.0416,756.2286 3856.0416,799.0884 3846.5172,799.0884 3846.5172,761.0538 3829.0194,761.0538 3829.0194,799.1871 3781.3974,799.1871 3781.3974,751.5651 3819.4187,751.5651 Z" />
		<path style="fill:none;" d="M 3790.9069,100.8595 L 3790.9069,415.1458 3781.3825,415.1458 3781.3825,100.8595 3790.9069,100.8595 Z" />
		<path style="fill:none;" d="M 3790.9069,729.4323 L 3790.9069,415.1458 3781.3825,415.1458 3781.3825,729.4323 3790.9069,729.4323 Z" />
		<path style="fill-rule:evenodd;fill:#e31c2a;" d="M 4279.0877,44.9268 L 4307.6609,44.9268 4307.6609,73.5 4279.0877,73.5 4279.0877,44.9268 Z M 4279.164,83.0244 L 4279.164,100.3299 4317.1987,100.3299 4317.1987,109.8543 4274.3389,109.8543 4274.3389,109.8281 4269.6396,109.8281 4269.6396,83.0602 4242.5673,83.0602 4242.5673,78.3609 4242.5411,78.3609 4242.5411,35.5011 4252.0655,35.5011 4252.0655,73.5358 4269.5633,73.5358 4269.5633,35.4024 4317.1853,35.4024 4317.1853,83.0244 4279.164,83.0244 Z" />
		<path style="fill-rule:evenodd;fill:#e31c2a;" d="M 4279.0877,789.6627 L 4307.6609,789.6627 4307.6609,761.0895 4279.0877,761.0895 4279.0877,789.6627 Z M 4279.164,751.5651 L 4279.164,734.2596 4317.1987,734.2596 4317.1987,724.7352 4274.3389,724.7352 4274.3389,724.7614 4269.6396,724.7614 4269.6396,751.5293 4242.5673,751.5293 4242.5673,756.2286 4242.5411,756.2286 4242.5411,799.0884 4252.0655,799.0884 4252.0655,761.0538 4269.5633,761.0538 4269.5633,799.1871 4317.1853,799.1871 4317.1853,751.5651 4279.164,751.5651 Z" />
		<path style="fill:none;" d="M 4307.6758,100.8595 L 4307.6758,415.1458 4317.2002,415.1458 4317.2002,100.8595 4307.6758,100.8595 Z" />
		<path style="fill:none;" d="M 4307.6758,729.4323 L 4307.6758,415.1458 4317.2002,415.1458 4317.2002,729.4323 4307.6758,729.4323 Z" />
		<path style="fill:none;" d="M 4246.166,35.5003 L 4049.1448,35.5003 4049.1448,45.0247 4246.166,45.0247 4246.166,35.5003 Z" />
		<path style="fill:none;" d="M 3852.1233,35.5003 L 4049.1448,35.5003 4049.1448,45.0247 3852.1233,45.0247 3852.1233,35.5003 Z" />
		<path style="fill:none;" d="M 4246.166,789.5529 L 4049.1448,789.5529 4049.1448,799.0773 4246.166,799.0773 4246.166,789.5529 Z" />
		<path style="fill:none;" d="M 3852.1233,789.5529 L 4049.1448,789.5529 4049.1448,799.0773 3852.1233,799.0773 3852.1233,789.5529 Z" />
	</g>
</g>
<g>
</g>
<g>
</g>
<rect y="0.0" x="4376.92913386" style="fill:none;stroke:black;" height="841.88976378" width="595.275590551" />
<g>
</g>
<g>
	<g>
		<path style="fill-rule:evenodd;fill:#e31c2a;" d="M 4444.7706,44.9268 L 4416.1974,44.9268 4416.1974,73.5 4444.7706,73.5 4444.7706,44.9268 Z M 4444.6943,83.0244 L 4444.6943,100.3299 4406.6596,100.3299 4406.6596,109.8543 4449.5193,109.8543 4449.5193,109.8281 4454.2187,109.8281 4454.2187,83.0602 4481.291,83.0602 4481.291,78.3609 4481.3172,78.3609 4481.3172,35.5011 4471.7928,35.5011 4471.7928,73.5358 4454.2949,73.5358 4454.2949,35.4024 4406.673,35.4024 4406.673,83.0244 4444.6943,83.0244 Z" />
		<path style="fill-rule:evenodd;fill:#e31c2a;" d="M 4444.7706,789.6627 L 4416.1974,789.6627 4416.1974,761.0895 4444.7706,761.0895 4444.7706,789.6627 Z M 4444.6943,751.5651 L 4444.6943,734.2596 4406.6596,734.2596 4406.6596,724.7352 4449.5193,724.7352 4449.5193,724.7614 4454.2187,724.7614 4454.2187,751.5293 4481.291,751.5293 4481.291,756.2286 4481.3172,756.2286 4481.3172,799.0884 4471.7928,799.0884 4471.7928,761.0538 4454.2949,761.0538 4454.2949,799.1871 4406.673,799.1871 4406.673,751.5651 4444.6943,751.5651 Z" />
		<path style="fill:none;" d="M 4416.1825,100.8595 L 4416.1825,415.1458 4406.658,415.1458 4406.658,100.8595 4416.1825,100.8595 Z" />
		<path style="fill:none;" d="M 4416.1825,729.4323 L 4416.1825,415.1458 4406.658,415.1458 4406.658,729.4323 4416.1825,729.4323 Z" />
		<path style="fill-rule:evenodd;fill:#e31c2a;" d="M 4904.3633,44.9268 L 4932.9365,44.9268 4932.9365,73.5 4904.3633,73.5 4904.3633,44.9268 Z M 4904.4396,83.0244 L 4904.4396,100.3299 4942.4743,100.3299 4942.4743,109.8543 4899.6145,109.8543 4899.6145,109.8281 4894.9152,109.8281 4894.9152,83.0602 4867.8429,83.0602 4867.8429,78.3609 4867.8167,78.3609 4867.8167,35.5011 4877.341,35.5011 4877.341,73.5358 4894.8389,73.5358 4894.8389,35.4024 4942.4609,35.4024 4942.4609,83.0244 4904.4396,83.0244 Z" />
		<path style="fill-rule:evenodd;fill:#e31c2a;" d="M 4904.3633,789.6627 L 4932.9365,789.6627 4932.9365,761.0895 4904.3633,761.0895 4904.3633,789.6627 Z M 4904.4396,751.5651 L 4904.4396,734.2596 4942.4743,734.2596 4942.4743,724.7352 4899.6145,724.7352 4899.6145,724.7614 4894.9152,724.7614 4894.9152,751.5293 4867.8429,751.5293 4867.8429,756.2286 4867.8167,756.2286 4867.8167,799.0884 4877.341,799.0884 4877.341,761.0538 4894.8389,761.0538 4894.8389,799.1871 4942.4609,799.1871 4942.4609,751.5651 4904.4396,751.5651 Z" />
		<path style="fill:none;" d="M 4932.9514,100.8595 L 4932.9514,415.1458 4942.4758,415.1458 4942.4758,100.8595 4932.9514,100.8595 Z" />
		<path style="fill:none;" d="M 4932.9514,729.4323 L 4932.9514,415.1458 4942.4758,415.1458 4942.4758,729.4323 4932.9514,729.4323 Z" />
		<path style="fill:none;" d="M 4871.4416,35.5003 L 4674.4204,35.5003 4674.4204,45.0247 4871.4416,45.0247 4871.4416,35.5003 Z" />
		<path style="fill:none;" d="M 4477.3989,35.5003 L 4674.4204,35.5003 4674.4204,45.0247 4477.3989,45.0247 4477.3989,35.5003 Z" />
		<path style="fill:none;" d="M 4871.4416,789.5529 L 4674.4204,789.5529 4674.4204,799.0773 4871.4416,799.0773 4871.4416,789.5529 Z" />
		<path style="fill:none;" d="M 4477.3989,789.5529 L 4674.4204,789.5529 4674.4204,799.0773 4477.3989,799.0773 4477.3989,789.5529 Z" />
	</g>
</g>
<g>
</g>
<g>
</g>
<rect y="0.0" x="5002.20472441" style="fill:none;stroke:black;" height="841.88976378" width="595.275590551" />
<g>
</g>
<g>
	<g>
		<path style="fill-rule:evenodd;fill:#e31c2a;" d="M 5070.0461,44.9268 L 5041.473,44.9268 5041.473,73.5 5070.0461,73.5 5070.0461,44.9268 Z M 5069.9699,83.0244 L 5069.9699,100.3299 5031.9352,100.3299 5031.9352,109.8543 5074.7949,109.8543 5074.7949,109.8281 5079.4942,109.8281 5079.4942,83.0602 5106.5666,83.0602 5106.5666,78.3609 5106.5928,78.3609 5106.5928,35.5011 5097.0684,35.5011 5097.0684,73.5358 5079.5705,73.5358 5079.5705,35.4024 5031.9486,35.4024 5031.9486,83.0244 5069.9699,83.0244 Z" />
		<path style="fill-rule:evenodd;fill:#e31c2a;" d="M 5070.0461,789.6627 L 5041.473,789.6627 5041.473,761.0895 5070.0461,761.0895 5070.0461,789.6627 Z M 5069.9699,751.5651 L 5069.9699,734.2596 5031.9352,734.2596 5031.9352,724.7352 5074.7949,724.7352 5074.7949,724.7614 5079.4942,724.7614 5079.4942,751.5293 5106.5666,751.5293 5106.5666,756.2286 5106.5928,756.2286 5106.5928,799.0884 5097.0684,799.0884 5097.0684,761.0538 5079.5705,761.0538 5079.5705,799.1871 5031.9486,799.1871 5031.9486,751.5651 5069.9699,751.5651 Z" />
		<path style="fill:none;" d="M 5041.458,100.8595 L 5041.458,415.1458 5031.9336,415.1458 5031.9336,100.8595 5041.458,100.8595 Z" />
		<path style="fill:none;" d="M 5041.458,729.4323 L 5041.458,415.1458 5031.9336,415.1458 5031.9336,729.4323 5041.458,729.4323 Z" />
		<path style="fill-rule:evenodd;fill:#e31c2a;" d="M 5529.6389,44.9268 L 5558.2121,44.9268 5558.2121,73.5 5529.6389,73.5 5529.6389,44.9268 Z M 5529.7152,83.0244 L 5529.7152,100.3299 5567.7499,100.3299 5567.7499,109.8543 5524.8901,109.8543 5524.8901,109.8281 5520.1908,109.8281 5520.1908,83.0602 5493.1184,83.0602 5493.1184,78.3609 5493.0922,78.3609 5493.0922,35.5011 5502.6166,35.5011 5502.6166,73.5358 5520.1145,73.5358 5520.1145,35.4024 5567.7364,35.4024 5567.7364,83.0244 5529.7152,83.0244 Z" />
		<path style="fill-rule:evenodd;fill:#e31c2a;" d="M 5529.6389,789.6627 L 5558.2121,789.6627 5558.2121,761.0895 5529.6389,761.0895 5529.6389,789.6627 Z M 5529.7152,751.5651 L 5529.7152,734.2596 5567.7499,734.2596 5567.7499,724.7352 5524.8901,724.7352 5524.8901,724.7614 5520.1908,724.7614 5520.1908,751.5293 5493.1184,751.5293 5493.1184,756.2286 5493.0922,756.2286 5493.0922,799.0884 5502.6166,799.0884 5502.6166,761.0538 5520.1145,761.0538 5520.1145,799.1871 5567.7364,799.1871 5567.7364,751.5651 5529.7152,751.5651 Z" />
		<path style="fill:none;" d="M 5558.227,100.8595 L 5558.227,415.1458 5567.7514,415.1458 5567.7514,100.8595 5558.227,100.8595 Z" />
		<path style="fill:none;" d="M 5558.227,729.4323 L 5558.227,415.1458 5567.7514,415.1458 5567.7514,729.4323 5558.227,729.4323 Z" />
		<path style="fill:none;" d="M 5496.7172,35.5003 L 5299.696,35.5003 5299.696,45.0247 5496.7172,45.0247 5496.7172,35.5003 Z" />
		<path style="fill:none;" d="M 5102.6745,35.5003 L 5299.696,35.5003 5299.696,45.0247 5102.6745,45.0247 5102.6745,35.5003 Z" />
		<path style="fill:none;" d="M 5496.7172,789.5529 L 5299.696,789.5529 5299.696,799.0773 5496.7172,799.0773 5496.7172,789.5529 Z" />
		<path style="fill:none;" d="M 5102.6745,789.5529 L 5299.696,789.5529 5299.696,799.0773 5102.6745,799.0773 5102.6745,789.5529 Z" />
	</g>
</g>
<g>
</g>
<g>
</g>
<rect y="0.0" x="5627.48031496" style="fill:none;stroke:black;" height="841.88976378" width="595.275590551" />
<g>
</g>
<g>
	<g>
		<path style="fill-rule:evenodd;fill:#e31c2a;" d="M 5695.3217,44.9268 L 5666.7486,44.9268 5666.7486,73.5 5695.3217,73.5 5695.3217,44.9268 Z M 5695.2454,83.0244 L 5695.2454,100.3299 5657.2108,100.3299 5657.2108,109.8543 5700.0705,109.8543 5700.0705,109.8281 5704.7698,109.8281 5704.7698,83.0602 5731.8422,83.0602 5731.8422,78.3609 5731.8684,78.3609 5731.8684,35.5011 5722.344,35.5011 5722.344,73.5358 5704.8461,73.5358 5704.8461,35.4024 5657.2242,35.4024 5657.2242,83.0244 5695.2454,83.0244 Z" />
		<path style="fill-rule:evenodd;fill:#e31c2a;" d="M 5695.3217,789.6627 L 5666.7486,789.6627 5666.7486,761.0895 5695.3217,761.0895 5695.3217,789.6627 Z M 5695.2454,751.5651 L 5695.2454,734.2596 5657.2108,734.2596 5657.2108,724.7352 5700.0705,724.7352 5700.0705,724.7614 5704.7698,724.7614 5704.7698,751.5293 5731.8422,751.5293 5731.8422,756.2286 5731.8684,756.2286 5731.8684,799.0884 5722.344,799.0884 5722.344,761.0538 5704.8461,761.0538 5704.8461,799.1871 5657.2242,799.1871 5657.2242,751.5651 5695.2454,751.5651 Z" />
		<path style="fill:none;" d="M 5666.7336,100.8595 L 5666.7336,415.1458 5657.2092,415.1458 5657.2092,100.8595 5666.7336,100.8595 Z" />
		<path style="fill:none;" d="M 5666.7336,729.4323 L 5666.7336,415.1458 5657.2092,415.1458 5657.2092,729.4323 5666.7336,729.4323 Z" />
		<path style="fill-rule:evenodd;fill:#e31c2a;" d="M 6154.9145,44.9268 L 6183.4876,44.9268 6183.4876,73.5 6154.9145,73.5 6154.9145,44.9268 Z M 6154.9908,83.0244 L 6154.9908,100.3299 6193.0255,100.3299 6193.0255,109.8543 6150.1657,109.8543 6150.1657,109.8281 6145.4664,109.8281 6145.4664,83.0602 6118.394,83.0602 6118.394,78.3609 6118.3678,78.3609 6118.3678,35.5011 6127.8922,35.5011 6127.8922,73.5358 6145.3901,73.5358 6145.3901,35.4024 6193.012,35.4024 6193.012,83.0244 6154.9908,83.0244 Z" />
		<path style="fill-rule:evenodd;fill:#e31c2a;" d="M 6154.9145,789.6627 L 6183.4876,789.6627 6183.4876,761.0895 6154.9145,761.0895 6154.9145,789.6627 Z M 6154.9908,751.5651 L 6154.9908,734.2596 6193.0255,734.2596 6193.0255,724.7352 6150.1657,724.7352 6150.1657,724.7614 6145.4664,724.7614 6145.4664,751.5293 6118.394,751.5293 6118.394,756.2286 6118.3678,756.2286 6118.3678,799.0884 6127.8922,799.0884 6127.8922,761.0538 6145.3901,761.0538 6145.3901,799.1871 6193.012,799.1871 6193.012,751.5651 6154.9908,751.5651 Z" />
		<path style="fill:none;" d="M 6183.5026,100.8595 L 6183.5026,415.1458 6193.027,415.1458 6193.027,100.8595 6183.5026,100.8595 Z" />
		<path style="fill:none;" d="M 6183.5026,729.4323 L 6183.5026,415.1458 6193.027,415.1458 6193.027,729.4323 6183.5026,729.4323 Z" />
		<path style="fill:none;" d="M 6121.9928,35.5003 L 5924.9716,35.5003 5924.9716,45.0247 6121.9928,45.0247 6121.9928,35.5003 Z" />
		<path style="fill:none;" d="M 5727.9501,35.5003 L 5924.9716,35.5003 5924.9716,45.0247 5727.9501,45.0247 5727.9501,35.5003 Z" />
		<path style="fill:none;" d="M 6121.9928,789.5529 L 5924.9716,789.5529 5924.9716,799.0773 6121.9928,799.0773 6121.9928,789.5529 Z" />
		<path style="fill:none;" d="M 5727.9501,789.5529 L 5924.9716,789.5529 5924.9716,799.0773 5727.9501,799.0773 5727.9501,789.5529 Z" />
	</g>
</g>
<g>
</g>
<g>
</g>
<rect y="0.0" x="6252.75590551" style="fill:none;stroke:black;" height="841.88976378" width="595.275590551" />
<g>
</g>
<g>
	<g>
		<path style="fill-rule:evenodd;fill:#e31c2a;" d="M 6320.5973,44.9268 L 6292.0242,44.9268 6292.0242,73.5 6320.5973,73.5 6320.5973,44.9268 Z M 6320.521,83.0244 L 6320.521,100.3299 6282.4864,100.3299 6282.4864,109.8543 6325.3461,109.8543 6325.3461,109.8281 6330.0454,109.8281 6330.0454,83.0602 6357.1178,83.0602 6357.1178,78.3609 6357.144,78.3609 6357.144,35.5011 6347.6196,35.5011 6347.6196,73.5358 6330.1217,73.5358 6330.1217,35.4024 6282.4998,35.4024 6282.4998,83.0244 6320.521,83.0244 Z" />
		<path style="fill-rule:evenodd;fill:#e31c2a;" d="M 6320.5973,789.6627 L 6292.0242,789.6627 6292.0242,761.0895 6320.5973,761.0895 6320.5973,789.6627 Z M 6320.521,751.5651 L 6320.521,734.2596 6282.4864,734.2596 6282.4864,724.7352 6325.3461,724.7352 6325.3461,724.7614 6330.0454,724.7614 6330.0454,751.5293 6357.1178,751.5293 6357.1178,756.2286 6357.144,756.2286 6357.144,799.0884 6347.6196,799.0884 6347.6196,761.0538 6330.1217,761.0538 6330.1217,799.1871 6282.4998,799.1871 6282.4998,751.5651 6320.521,751.5651 Z" />
		<path style="fill:none;" d="M 6292.0092,100.8595 L 6292.0092,415.1458 6282.4848,415.1458 6282.4848,100.8595 6292.0092,100.8595 Z" />
		<path style="fill:none;" d="M 6292.0092,729.4323 L 6292.0092,415.1458 6282.4848,415.1458 6282.4848,729.4323 6292.0092,729.4323 Z" />
		<path style="fill-rule:evenodd;fill:#e31c2a;" d="M 6780.1901,44.9268 L 6808.7632,44.9268 6808.7632,73.5 6780.1901,73.5 6780.1901,44.9268 Z M 6780.2664,83.0244 L 6780.2664,100.3299 6818.3011,100.3299 6818.3011,109.8543 6775.4413,109.8543 6775.4413,109.8281 6770.742,109.8281 6770.742,83.0602 6743.6696,83.0602 6743.6696,78.3609 6743.6434,78.3609 6743.6434,35.5011 6753.1678,35.5011 6753.1678,73.5358 6770.6657,73.5358 6770.6657,35.4024 6818.2876,35.4024 6818.2876,83.0244 6780.2664,83.0244 Z" />
		<path style="fill-rule:evenodd;fill:#e31c2a;" d="M 6780.1901,789.6627 L 6808.7632,789.6627 6808.7632,761.0895 6780.1901,761.0895 6780.1901,789.6627 Z M 6780.2664,751.5651 L 6780.2664,734.2596 6818.3011,734.2596 6818.3011,724.7352 6775.4413,724.7352 6775.4413,724.7614 6770.742,724.7614 6770.742,751.5293 6743.6696,751.5293 6743.6696,756.2286 6743.6434,756.2286 6743.6434,799.0884 6753.1678,799.0884 6753.1678,761.0538 6770.6657,761.0538 6770.6657,799.1871 6818.2876,799.1871 6818.2876,751.5651 6780.2664,751.5651 Z" />
		<path style="fill:none;" d="M 6808.7782,100.8595 L 6808.7782,415.1458 6818.3026,415.1458 6818.3026,100.8595 6808.7782,100.8595 Z" />
		<path style="fill:none;" d="M 6808.7782,729.4323 L 6808.7782,415.1458 6818.3026,415.1458 6818.3026,729.4323 6808.7782,729.4323 Z" />
		<path style="fill:none;" d="M 6747.2683,35.5003 L 6550.2471,35.5003 6550.2471,45.0247 6747.2683,45.0247 6747.2683,35.5003 Z" />
		<path style="fill:none;" d="M 6353.2257,35.5003 L 6550.2471,35.5003 6550.2471,45.0247 6353.2257,45.0247 6353.2257,35.5003 Z" />
		<path style="fill:none;" d="M 6747.2683,789.5529 L 6550.2471,789.5529 6550.2471,799.0773 6747.2683,799.0773 6747.2683,789.5529 Z" />
		<path style="fill:none;" d="M 6353.2257,789.5529 L 6550.2471,789.5529 6550.2471,799.0773 6353.2257,799.0773 6353.2257,789.5529 Z" />
	</g>
</g>
<g>
</g>
<g>
</g>
<rect y="0.0" x="6878.03149606" style="fill:none;stroke:black;" height="841.88976378" width="595.275590551" />
<g>
</g>
<g>
	<g>
		<path style="fill-rule:evenodd;fill:#e31c2a;" d="M 6945.8729,44.9268 L 6917.2998,44.9268 6917.2998,73.5 6945.8729,73.5 6945.8729,44.9268 Z M 6945.7966,83.0244 L 6945.7966,100.3299 6907.7619,100.3299 6907.7619,109.8543 6950.6217,109.8543 6950.6217,109.8281 6955.321,109.8281 6955.321,83.0602 6982.3934,83.0602 6982.3934,78.3609 6982.4196,78.3609 6982.4196,35.5011 6972.8952,35.5011 6972.8952,73.5358 6955.3973,73.5358 6955.3973,35.4024 6907.7754,35.4024 6907.7754,83.0244 6945.7966,83.0244 Z" />
		<path style="fill-rule:evenodd;fill:#e31c2a;" d="M 6945.8729,789.6627 L 6917.2998,789.6627 6917.2998,761.0895 6945.8729,761.0895 6945.8729,789.6627 Z M 6945.7966,751.5651 L 6945.7966,734.2596 6907.7619,734.2596 6907.7619,724.7352 6950.6217,724.7352 6950.6217,724.7614 6955.321,724.7614 6955.321,751.5293 6982.3934,751.5293 6982.3934,756.2286 6982.4196,756.2286 6982.4196,799.0884 6972.8952,799.0884 6972.8952,761.0538 6955.3973,761.0538 6955.3973,799.1871 6907.7754,799.1871 6907.7754,751.5651 6945.7966,751.5651 Z" />
		<path style="fill:none;" d="M 6917.2848,100.8595 L 6917.2848,415.1458 6907.7604,415.1458 6907.7604,100.8595 6917.2848,100.8595 Z" />
		<path style="fill:none;" d="M 6917.2848,729.4323 L 6917.2848,415.1458 6907.7604,415.1458 6907.7604,729.4323 6917.2848,729.4323 Z" />
		<path style="fill-rule:evenodd;fill:#e31c2a;" d="M 7405.4657,44.9268 L 7434.0388,44.9268 7434.0388,73.5 7405.4657,73.5 7405.4657,44.9268 Z M 7405.542,83.0244 L 7405.542,100.3299 7443.5766,100.3299 7443.5766,109.8543 7400.7169,109.8543 7400.7169,109.8281 7396.0176,109.8281 7396.0176,83.0602 7368.9452,83.0602 7368.9452,78.3609 7368.919,78.3609 7368.919,35.5011 7378.4434,35.5011 7378.4434,73.5358 7395.9413,73.5358 7395.9413,35.4024 7443.5632,35.4024 7443.5632,83.0244 7405.542,83.0244 Z" />
		<path style="fill-rule:evenodd;fill:#e31c2a;" d="M 7405.4657,789.6627 L 7434.0388,789.6627 7434.0388,761.0895 7405.4657,761.0895 7405.4657,789.6627 Z M 7405.542,751.5651 L 7405.542,734.2596 7443.5766,734.2596 7443.5766,724.7352 7400.7169,724.7352 7400.7169,724.7614 7396.0176,724.7614 7396.0176,751.5293 7368.9452,751.5293 7368.9452,756.2286 7368.919,756.2286 7368.919,799.0884 7378.4434,799.0884 7378.4434,761.0538 7395.9413,761.0538 7395.9413,799.1871 7443.5632,799.1871 7443.5632,751.5651 7405.542,751.5651 Z" />
		<path style="fill:none;" d="M 7434.0538,100.8595 L 7434.0538,415.1458 7443.5782,415.1458 7443.5782,100.8595 7434.0538,100.8595 Z" />
		<path style="fill:none;" d="M 7434.0538,729.4323 L 7434.0538,415.1458 7443.5782,415.1458 7443.5782,729.4323 7434.0538,729.4323 Z" />
		<path style="fill:none;" d="M 7372.5439,35.5003 L 7175.5227,35.5003 7175.5227,45.0247 7372.5439,45.0247 7372.5439,35.5003 Z" />
		<path style="fill:none;" d="M 6978.5013,35.5003 L 7175.5227,35.5003 7175.5227,45.0247 6978.5013,45.0247 6978.5013,35.5003 Z" />
		<path style="fill:none;" d="M 7372.5439,789.5529 L 7175.5227,789.5529 7175.5227,799.0773 7372.5439,799.0773 7372.5439,789.5529 Z" />
		<path style="fill:none;" d="M 6978.5013,789.5529 L 7175.5227,789.5529 7175.5227,799.0773 6978.5013,799.0773 6978.5013,789.5529 Z" />
	</g>
</g>
<g>
</g>
<g>
</g>
<rect y="0.0" x="7503.30708661" style="fill:none;stroke:black;" height="841.88976378" width="595.275590551" />
<g>
</g>
<g>
	<g>
		<path style="fill-rule:evenodd;fill:#e31c2a;" d="M 7571.1485,44.9268 L 7542.5753,44.9268 7542.5753,73.5 7571.1485,73.5 7571.1485,44.9268 Z M 7571.0722,83.0244 L 7571.0722,100.3299 7533.0375,100.3299 7533.0375,109.8543 7575.8973,109.8543 7575.8973,109.8281 7580.5966,109.8281 7580.5966,83.0602 7607.669,83.0602 7607.669,78.3609 7607.6952,78.3609 7607.6952,35.5011 7598.1708,35.5011 7598.1708,73.5358 7580.6729,73.5358 7580.6729,35.4024 7533.051,35.4024 7533.051,83.0244 7571.0722,83.0244 Z" />
		<path style="fill-rule:evenodd;fill:#e31c2a;" d="M 7571.1485,789.6627 L 7542.5753,789.6627 7542.5753,761.0895 7571.1485,761.0895 7571.1485,789.6627 Z M 7571.0722,751.5651 L 7571.0722,734.2596 7533.0375,734.2596 7533.0375,724.7352 7575.8973,724.7352 7575.8973,724.7614 7580.5966,724.7614 7580.5966,751.5293 7607.669,751.5293 7607.669,756.2286 7607.6952,756.2286 7607.6952,799.0884 7598.1708,799.0884 7598.1708,761.0538 7580.6729,761.0538 7580.6729,799.1871 7533.051,799.1871 7533.051,751.5651 7571.0722,751.5651 Z" />
		<path style="fill:none;" d="M 7542.5604,100.8595 L 7542.5604,415.1458 7533.036,415.1458 7533.036,100.8595 7542.5604,100.8595 Z" />
		<path style="fill:none;" d="M 7542.5604,729.4323 L 7542.5604,415.1458 7533.036,415.1458 7533.036,729.4323 7542.5604,729.4323 Z" />
		<path style="fill-rule:evenodd;fill:#e31c2a;" d="M 8030.7413,44.9268 L 8059.3144,44.9268 8059.3144,73.5 8030.7413,73.5 8030.7413,44.9268 Z M 8030.8175,83.0244 L 8030.8175,100.3299 8068.8522,100.3299 8068.8522,109.8543 8025.9925,109.8543 8025.9925,109.8281 8021.2932,109.8281 8021.2932,83.0602 7994.2208,83.0602 7994.2208,78.3609 7994.1946,78.3609 7994.1946,35.5011 8003.719,35.5011 8003.719,73.5358 8021.2169,73.5358 8021.2169,35.4024 8068.8388,35.4024 8068.8388,83.0244 8030.8175,83.0244 Z" />
		<path style="fill-rule:evenodd;fill:#e31c2a;" d="M 8030.7413,789.6627 L 8059.3144,789.6627 8059.3144,761.0895 8030.7413,761.0895 8030.7413,789.6627 Z M 8030.8175,751.5651 L 8030.8175,734.2596 8068.8522,734.2596 8068.8522,724.7352 8025.9925,724.7352 8025.9925,724.7614 8021.2932,724.7614 8021.2932,751.5293 7994.2208,751.5293 7994.2208,756.2286 7994.1946,756.2286 7994.1946,799.0884 8003.719,799.0884 8003.719,761.0538 8021.2169,761.0538 8021.2169,799.1871 8068.8388,799.1871 8068.8388,751.5651 8030.8175,751.5651 Z" />
		<path style="fill:none;" d="M 8059.3294,100.8595 L 8059.3294,415.1458 8068.8538,415.1458 8068.8538,100.8595 8059.3294,100.8595 Z" />
		<path style="fill:none;" d="M 8059.3294,729.4323 L 8059.3294,415.1458 8068.8538,415.1458 8068.8538,729.4323 8059.3294,729.4323 Z" />
		<path style="fill:none;" d="M 7997.8195,35.5003 L 7800.7983,35.5003 7800.7983,45.0247 7997.8195,45.0247 7997.8195,35.5003 Z" />
		<path style="fill:none;" d="M 7603.7769,35.5003 L 7800.7983,35.5003 7800.7983,45.0247 7603.7769,45.0247 7603.7769,35.5003 Z" />
		<path style="fill:none;" d="M 7997.8195,789.5529 L 7800.7983,789.5529 7800.7983,799.0773 7997.8195,799.0773 7997.8195,789.5529 Z" />
		<path style="fill:none;" d="M 7603.7769,789.5529 L 7800.7983,789.5529 7800.7983,799.0773 7603.7769,799.0773 7603.7769,789.5529 Z" />
	</g>
</g>
<g>
</g>
<g>
</g>
<rect y="0.0" x="8128.58267717" style="fill:none;stroke:black;" height="841.88976378" width="595.275590551" />
<g>
</g>
<g>
	<path style="stroke:#2d2c2b;stroke-width:0.2835;stroke-miterlimit:10.433;fill:none;" d="M 8128.5824,841.89 L 8128.5824,-0.0003 8723.8586,-0.0003 8723.8586,841.89 8128.5824,841.89 Z" />
	<g>
		<path style="fill-rule:evenodd;fill:#e31c2a;" d="M 8196.4241,44.9268 L 8167.8509,44.9268 8167.8509,73.5 8196.4241,73.5 8196.4241,44.9268 Z M 8196.3478,83.0244 L 8196.3478,100.3299 8158.3131,100.3299 8158.3131,109.8543 8201.1729,109.8543 8201.1729,109.8281 8205.8722,109.8281 8205.8722,83.0602 8232.9446,83.0602 8232.9446,78.3609 8232.9707,78.3609 8232.9707,35.5011 8223.4464,35.5011 8223.4464,73.5358 8205.9485,73.5358 8205.9485,35.4024 8158.3266,35.4024 8158.3266,83.0244 8196.3478,83.0244 Z" />
		<path style="fill-rule:evenodd;fill:#e31c2a;" d="M 8196.4241,789.6627 L 8167.8509,789.6627 8167.8509,761.0895 8196.4241,761.0895 8196.4241,789.6627 Z M 8196.3478,751.5651 L 8196.3478,734.2596 8158.3131,734.2596 8158.3131,724.7352 8201.1729,724.7352 8201.1729,724.7614 8205.8722,724.7614 8205.8722,751.5293 8232.9446,751.5293 8232.9446,756.2286 8232.9707,756.2286 8232.9707,799.0884 8223.4464,799.0884 8223.4464,761.0538 8205.9485,761.0538 8205.9485,799.1871 8158.3266,799.1871 8158.3266,751.5651 8196.3478,751.5651 Z" />
		<path style="fill:none;" d="M 8167.836,100.8595 L 8167.836,415.1458 8158.3116,415.1458 8158.3116,100.8595 8167.836,100.8595 Z" />
		<path style="fill:none;" d="M 8167.836,729.4323 L 8167.836,415.1458 8158.3116,415.1458 8158.3116,729.4323 8167.836,729.4323 Z" />
		<path style="fill-rule:evenodd;fill:#e31c2a;" d="M 8656.0168,44.9268 L 8684.59,44.9268 8684.59,73.5 8656.0168,73.5 8656.0168,44.9268 Z M 8656.0931,83.0244 L 8656.0931,100.3299 8694.1278,100.3299 8694.1278,109.8543 8651.2681,109.8543 8651.2681,109.8281 8646.5687,109.8281 8646.5687,83.0602 8619.4964,83.0602 8619.4964,78.3609 8619.4702,78.3609 8619.4702,35.5011 8628.9946,35.5011 8628.9946,73.5358 8646.4925,73.5358 8646.4925,35.4024 8694.1144,35.4024 8694.1144,83.0244 8656.0931,83.0244 Z" />
		<path style="fill-rule:evenodd;fill:#e31c2a;" d="M 8656.0168,789.6627 L 8684.59,789.6627 8684.59,761.0895 8656.0168,761.0895 8656.0168,789.6627 Z M 8656.0931,751.5651 L 8656.0931,734.2596 8694.1278,734.2596 8694.1278,724.7352 8651.2681,724.7352 8651.2681,724.7614 8646.5687,724.7614 8646.5687,751.5293 8619.4964,751.5293 8619.4964,756.2286 8619.4702,756.2286 8619.4702,799.0884 8628.9946,799.0884 8628.9946,761.0538 8646.4925,761.0538 8646.4925,799.1871 8694.1144,799.1871 8694.1144,751.5651 8656.0931,751.5651 Z" />
		<path style="fill:none;" d="M 8684.6049,100.8595 L 8684.6049,415.1458 8694.1294,415.1458 8694.1294,100.8595 8684.6049,100.8595 Z" />
		<path style="fill:none;" d="M 8684.6049,729.4323 L 8684.6049,415.1458 8694.1294,415.1458 8694.1294,729.4323 8684.6049,729.4323 Z" />
		<path style="fill:none;" d="M 8623.0951,35.5003 L 8426.0739,35.5003 8426.0739,45.0247 8623.0951,45.0247 8623.0951,35.5003 Z" />
		<path style="fill:none;" d="M 8229.0524,35.5003 L 8426.0739,35.5003 8426.0739,45.0247 8229.0524,45.0247 8229.0524,35.5003 Z" />
		<path style="fill:none;" d="M 8623.0951,789.5529 L 8426.0739,789.5529 8426.0739,799.0773 8623.0951,799.0773 8623.0951,789.5529 Z" />
		<path style="fill:none;" d="M 8229.0524,789.5529 L 8426.0739,789.5529 8426.0739,799.0773 8229.0524,799.0773 8229.0524,789.5529 Z" />
	</g>
</g>
<g>
</g>
<g>
</g>
</svg>